<svg version="1.1" xmlns="http://www.w3.org/2000/svg" xmlns:xlink="http://www.w3.org/1999/xlink" x="0px" y="0px" width="10px" height="10px" viewBox="0 0 10 10" style="enable-background:new 0 0 10 10;" xml:space="preserve">
<style type="text/css">
	.st0{fill:#7F7F82;}
</style>
<g>
	<circle class="st0" cx="1.9" cy="8.1" r="1"/>
	<path class="st0" d="M5.7,9.3c-0.3,0-0.6-0.3-0.6-0.6l0,0C5.1,6.7,3.4,5,1.3,5c0,0,0,0-0.1,0C0.9,5,0.7,4.7,0.7,4.4
		s0.3-0.6,0.6-0.6c2.8,0,5,2.2,5,5l0,0C6.2,9.1,6,9.3,5.7,9.3z"/>
	<path class="st0" d="M8.7,9.3C8.4,9.3,8.1,9,8.1,8.7l0,0c0-3.8-3.1-6.8-6.8-6.8C1,1.9,0.7,1.6,0.7,1.3S1,0.7,1.3,0.7
		c4.4,0,8,3.6,8,8l0,0C9.3,9,9.1,9.3,8.7,9.3z"/>
</g>
</svg>
